<svg width="43" height="12" viewBox="0 0 43 12" fill="none" xmlns="http://www.w3.org/2000/svg">
    <path d="M7.75489 3.958H6.48089C6.34089 2.60467 5.51489 1.928 4.00289 1.928C3.28423 1.928 2.72889 2.07267 2.33689 2.362C1.94489 2.65133 1.74889 3.05733 1.74889 3.58C1.74889 3.76667 1.77689 3.93 1.83289 4.07C1.88889 4.21 1.98223 4.336 2.11289 4.448C2.25289 4.55067 2.38356 4.63933 2.50489 4.714C2.62623 4.78867 2.81756 4.86333 3.07889 4.938C3.34023 5.01267 3.55023 5.06867 3.70889 5.106C3.86756 5.134 4.11489 5.18533 4.45089 5.26C4.86156 5.344 5.20223 5.42333 5.47289 5.498C5.74356 5.56333 6.06556 5.67533 6.43889 5.834C6.81223 5.99267 7.10623 6.17 7.32089 6.366C7.54489 6.55267 7.73623 6.80467 7.89489 7.122C8.06289 7.43933 8.14689 7.79867 8.14689 8.2C8.14689 8.9 7.95089 9.488 7.55889 9.964C7.16689 10.4307 6.69089 10.7573 6.13089 10.944C5.57089 11.1307 4.95023 11.224 4.26889 11.224C3.01823 11.224 2.01489 10.93 1.25889 10.342C0.512225 9.74467 0.138892 8.86733 0.138892 7.71H1.41289C1.44089 8.55933 1.72556 9.18 2.26689 9.572C2.80823 9.95467 3.51289 10.146 4.38089 10.146C5.06223 10.146 5.64556 10.006 6.13089 9.726C6.61623 9.43667 6.85889 8.97 6.85889 8.326C6.85889 8.02733 6.79356 7.77533 6.66289 7.57C6.53223 7.35533 6.32689 7.18267 6.04689 7.052C5.76689 6.912 5.48689 6.8 5.20689 6.716C4.92689 6.632 4.55823 6.53867 4.10089 6.436C4.03556 6.42667 3.98889 6.41733 3.96089 6.408C2.93423 6.17467 2.26223 5.988 1.94489 5.848C0.974225 5.428 0.488892 4.70467 0.488892 3.678C0.488892 2.726 0.838892 2.01667 1.53889 1.55C2.24823 1.074 3.10223 0.836 4.10089 0.836C5.19289 0.836 6.06556 1.09733 6.71889 1.62C7.37223 2.14267 7.71756 2.922 7.75489 3.958ZM16.973 1.032V2.18H13.627V11H12.311V2.18H8.96502V1.032H16.973ZM21.2769 1.032L25.1689 11H23.6989L22.5929 7.948H18.4069L17.2729 11H15.8729L19.7929 1.032H21.2769ZM22.2009 6.898L20.5069 2.292L18.7849 6.898H22.2009ZM26.449 1.032H30.831C33.0617 1.032 34.177 1.95133 34.177 3.79C34.177 4.36867 34.0184 4.882 33.701 5.33C33.393 5.76867 32.9824 6.06267 32.469 6.212C32.805 6.28667 33.0757 6.394 33.281 6.534C33.4864 6.674 33.6357 6.87 33.729 7.122C33.8224 7.374 33.883 7.598 33.911 7.794C33.939 7.99 33.9624 8.27933 33.981 8.662C33.981 8.69933 33.9857 8.79267 33.995 8.942C34.0044 9.082 34.009 9.18 34.009 9.236C34.009 9.28267 34.0137 9.37133 34.023 9.502C34.0417 9.63267 34.0557 9.73067 34.065 9.796C34.0744 9.86133 34.0884 9.95 34.107 10.062C34.1257 10.174 34.149 10.2673 34.177 10.342C34.205 10.4073 34.2377 10.4867 34.275 10.58C34.3124 10.664 34.3544 10.7433 34.401 10.818C34.4477 10.8833 34.499 10.944 34.555 11H33.043C32.9777 10.9067 32.9217 10.79 32.875 10.65C32.8377 10.51 32.8097 10.3467 32.791 10.16C32.7724 9.964 32.7584 9.81 32.749 9.698C32.7397 9.57667 32.7304 9.404 32.721 9.18C32.7117 8.956 32.707 8.83 32.707 8.802C32.6604 7.95267 32.483 7.388 32.175 7.108C31.8764 6.828 31.279 6.688 30.383 6.688H27.765V11H26.449V1.032ZM27.765 2.152V5.638H30.243C30.551 5.638 30.8077 5.62867 31.013 5.61C31.2277 5.59133 31.461 5.54933 31.713 5.484C31.965 5.41867 32.1657 5.32533 32.315 5.204C32.4737 5.08267 32.6044 4.91 32.707 4.686C32.8097 4.462 32.861 4.19133 32.861 3.874C32.861 3.202 32.6557 2.74933 32.245 2.516C31.8437 2.27333 31.293 2.152 30.593 2.152H27.765ZM42.9829 1.032V2.18H39.6369V11H38.3209V2.18H34.9749V1.032H42.9829Z" fill="#00D7FF"/>
</svg>
